# xmcd
#
# Track frame offsets:
#	150
#	17482
#	31303
#	49906
#	68033
#	85603
#	105692
#	123607
#	137052
#	163058
#	181885
#
# Disc length: 2608 seconds
#
# Revision: 1
# Processed by: cddbd v1.5.1PL0 Copyright (c) Steve Scherf et al.
# Submitted via: EasyCDDAExtractor 7.0.5.4
#
DISCID=8c0a2e0b
DTITLE=Faithful Heart - Til' The Music Takes You Home
DYEAR=2004
DGENRE=Gospel
TTITLE0=Worship
TTITLE1=I Got Way Down
TTITLE2=What A Morning
TTITLE3=He Set Me Free
TTITLE4=In Reverence To Him
TTITLE5=Taste Of Heaven
TTITLE6=Til' The Music Takes Me Home
TTITLE7=My Eternal Home
TTITLE8=North Forty Line
TTITLE9=Another Great Day
TTITLE10=Someday Soon
EXTD=
EXTT0=
EXTT1=
EXTT2=
EXTT3=
EXTT4=
EXTT5=
EXTT6=
EXTT7=
EXTT8=
EXTT9=
EXTT10=
PLAYORDER=
